<?xml version="1.0" encoding="utf-8"?>
<!-- Generator: Adobe Illustrator 23.0.2, SVG Export Plug-In . SVG Version: 6.00 Build 0)  -->
<svg version="1.1" id="Calque_1" xmlns="http://www.w3.org/2000/svg" xmlns:xlink="http://www.w3.org/1999/xlink" x="0px" y="0px"
	 viewBox="0 0 14.17 14.17" style="enable-background:new 0 0 14.17 14.17;" xml:space="preserve">
<style type="text/css">
	.st0{fill:url(#SVGID_1_);}
	.st1{fill:url(#SVGID_2_);}
	.st2{fill:url(#SVGID_3_);}
	.st3{fill:url(#SVGID_4_);}
	.st4{fill:url(#SVGID_5_);}
	.st5{fill:url(#SVGID_6_);}
	.st6{fill:url(#SVGID_7_);}
	.st7{fill:url(#SVGID_8_);}
	.st8{fill:url(#SVGID_9_);}
	.st9{fill:url(#SVGID_10_);}
	.st10{fill:url(#SVGID_11_);}
	.st11{fill:url(#SVGID_12_);}
	.st12{fill:url(#SVGID_13_);}
	.st13{fill:url(#SVGID_14_);}
	.st14{fill:url(#SVGID_15_);}
	.st15{fill:url(#SVGID_16_);}
	.st16{fill:url(#SVGID_17_);}
	.st17{fill:url(#SVGID_18_);}
	.st18{fill:url(#SVGID_19_);}
	.st19{fill:url(#SVGID_20_);}
	.st20{fill:url(#SVGID_21_);}
	.st21{fill:url(#SVGID_22_);}
	.st22{fill:url(#SVGID_23_);}
	.st23{fill:url(#SVGID_24_);}
	.st24{fill:url(#SVGID_25_);}
	.st25{fill:url(#SVGID_26_);}
	.st26{fill:url(#SVGID_27_);}
	.st27{fill:url(#SVGID_28_);}
	.st28{fill:url(#SVGID_29_);}
	.st29{fill:url(#SVGID_30_);}
	.st30{fill:url(#SVGID_31_);}
	.st31{fill:url(#SVGID_32_);}
	.st32{fill:url(#SVGID_33_);}
	.st33{fill:url(#SVGID_34_);}
	.st34{fill:url(#SVGID_35_);}
	.st35{fill:url(#SVGID_36_);}
	.st36{fill:url(#SVGID_37_);}
	.st37{fill:url(#SVGID_38_);}
	.st38{fill:url(#SVGID_39_);}
	.st39{fill:url(#SVGID_40_);}
	.st40{fill:url(#SVGID_41_);}
	.st41{fill:url(#SVGID_42_);}
	.st42{fill:url(#SVGID_43_);}
	.st43{fill:url(#SVGID_44_);}
	.st44{fill:url(#SVGID_45_);}
	.st45{fill:url(#SVGID_46_);}
	.st46{fill:url(#SVGID_47_);}
	.st47{fill:url(#SVGID_48_);}
	.st48{fill:url(#SVGID_49_);}
	.st49{fill:url(#SVGID_50_);}
	.st50{fill:url(#SVGID_51_);}
	.st51{fill:url(#SVGID_52_);}
	.st52{fill:url(#SVGID_53_);}
	.st53{fill:url(#SVGID_54_);}
	.st54{fill:url(#SVGID_55_);}
	.st55{fill:url(#SVGID_56_);}
	.st56{fill:url(#SVGID_57_);}
	.st57{fill:url(#SVGID_58_);}
	.st58{fill:url(#SVGID_59_);}
	.st59{fill:url(#SVGID_60_);}
	.st60{fill:url(#SVGID_61_);}
	.st61{fill:url(#SVGID_62_);}
	.st62{fill:url(#SVGID_63_);}
	.st63{fill:url(#SVGID_64_);}
	.st64{fill:url(#SVGID_65_);}
	.st65{fill:url(#SVGID_66_);}
	.st66{fill:url(#SVGID_67_);}
	.st67{fill:url(#SVGID_68_);}
	.st68{fill:url(#SVGID_69_);}
	.st69{fill:url(#SVGID_70_);}
	.st70{fill:url(#SVGID_71_);}
	.st71{fill:url(#SVGID_72_);}
	.st72{fill:url(#SVGID_73_);}
	.st73{fill:url(#SVGID_74_);}
	.st74{fill:url(#SVGID_75_);}
	.st75{fill:url(#SVGID_76_);}
	.st76{fill:url(#SVGID_77_);}
	.st77{fill:url(#SVGID_78_);}
	.st78{fill:url(#SVGID_79_);}
	.st79{fill:url(#SVGID_80_);}
	.st80{fill:url(#SVGID_81_);}
	.st81{fill:url(#SVGID_82_);}
	.st82{fill:url(#SVGID_83_);}
	.st83{fill:url(#SVGID_84_);}
	.st84{fill:url(#SVGID_85_);}
	.st85{fill:url(#SVGID_86_);}
	.st86{fill:url(#SVGID_87_);}
	.st87{fill:url(#SVGID_88_);}
	.st88{fill:url(#SVGID_89_);}
	.st89{fill:url(#SVGID_90_);}
	.st90{fill:url(#SVGID_91_);}
	.st91{fill:url(#SVGID_92_);}
	.st92{fill:url(#SVGID_93_);}
	.st93{fill:url(#SVGID_94_);}
	.st94{fill:url(#SVGID_95_);}
	.st95{fill:url(#SVGID_96_);}
	.st96{fill:url(#SVGID_97_);}
	.st97{fill:url(#SVGID_98_);}
	.st98{fill:url(#SVGID_99_);}
	.st99{fill:url(#SVGID_100_);}
	.st100{fill:url(#SVGID_101_);}
	.st101{fill:url(#SVGID_102_);}
	.st102{fill:url(#SVGID_103_);}
	.st103{fill:url(#SVGID_104_);}
	.st104{fill:url(#SVGID_105_);}
	.st105{fill:url(#SVGID_106_);}
	.st106{fill:url(#SVGID_107_);}
	.st107{fill:url(#SVGID_108_);}
	.st108{fill:url(#SVGID_109_);}
	.st109{fill:url(#SVGID_110_);}
	.st110{fill:url(#SVGID_111_);}
	.st111{fill:url(#SVGID_112_);}
	.st112{fill:url(#SVGID_113_);}
	.st113{fill:url(#SVGID_114_);}
	.st114{fill:url(#SVGID_115_);}
	.st115{fill:url(#SVGID_116_);}
	.st116{fill:url(#SVGID_117_);}
	.st117{fill:url(#SVGID_118_);}
	.st118{fill:url(#SVGID_119_);}
</style>
<g>
	<linearGradient id="SVGID_1_" gradientUnits="userSpaceOnUse" x1="1.814" y1="11.2142" x2="11.4662" y2="3.7794">
		<stop  offset="0" style="stop-color:#9E2DDC"/>
		<stop  offset="1" style="stop-color:#0D6AD9"/>
	</linearGradient>
	<path class="st0" d="M12.96,3.67l-0.21-0.34l-1.91,1.91C10.81,5.27,10.53,5.5,10.2,5.5C10,5.5,9.8,5.4,9.62,5.22
		C9.06,4.66,9.49,4.11,9.58,4.01l1.96-1.96l-0.42-0.19c-0.05-0.02-0.55-0.24-1.27-0.24c-0.65,0-1.63,0.18-2.62,1.04
		C5.88,3.84,6.42,5.53,6.68,6.14C6.1,6.7,5.35,7.35,4.63,7.98L4.6,8c-0.77,0.67-1.65,1.43-2.29,2.07l-0.03,0.04
		c-0.4,0.59-0.45,1.29-0.12,1.9c0.33,0.62,0.98,1.03,1.66,1.03c0.37,0,0.72-0.11,1.06-0.34l0.04-0.03c0.63-0.63,1.36-1.46,2.07-2.26
		l0.04-0.04C7.68,9.65,8.34,8.9,8.91,8.32C9.13,8.38,9.5,8.46,9.95,8.46c0.85,0,1.61-0.29,2.2-0.84
		C14.21,5.72,12.97,3.68,12.96,3.67z M5.02,8.48c0.81-0.7,1.65-1.43,2.27-2.06l0.17-0.17L7.34,6.05c-0.01-0.02-0.96-1.8,0.31-2.91
		c0.67-0.59,1.42-0.88,2.21-0.88c0.21,0,0.39,0.02,0.54,0.05L9.13,3.57C8.79,3.94,8.36,4.86,9.17,5.67
		c0.31,0.31,0.66,0.46,1.04,0.46c0.59,0,1.02-0.38,1.07-0.43l1.31-1.32c0.18,0.57,0.32,1.68-0.86,2.77
		c-0.48,0.44-1.08,0.67-1.77,0.67c-0.58,0-1.02-0.16-1.02-0.17L8.74,7.59L8.6,7.73C7.97,8.36,7.24,9.19,6.52,9.99
		c-0.7,0.79-1.43,1.61-2.02,2.2c-0.22,0.14-0.45,0.22-0.68,0.22c-0.45,0-0.88-0.27-1.1-0.69c-0.21-0.39-0.18-0.84,0.07-1.22
		c0.6-0.59,1.4-1.3,2.19-1.98L5.02,8.48z"/>
	<linearGradient id="SVGID_2_" gradientUnits="userSpaceOnUse" x1="2.5289" y1="12.1423" x2="12.1811" y2="4.7075">
		<stop  offset="0" style="stop-color:#9E2DDC"/>
		<stop  offset="1" style="stop-color:#0D6AD9"/>
	</linearGradient>
	<path class="st1" d="M3.96,12.03c0.55,0,0.99-0.44,0.99-0.99s-0.44-0.99-0.99-0.99s-0.99,0.44-0.99,0.99S3.41,12.03,3.96,12.03z
		 M3.96,10.69c0.2,0,0.36,0.16,0.36,0.36S4.16,11.4,3.96,11.4c-0.2,0-0.36-0.16-0.36-0.36S3.76,10.69,3.96,10.69z"/>
</g>
</svg>
