<?xml version="1.0" encoding="utf-8"?>
<!-- Generator: Adobe Illustrator 23.0.2, SVG Export Plug-In . SVG Version: 6.00 Build 0)  -->
<svg version="1.1" id="Calque_1" xmlns="http://www.w3.org/2000/svg" xmlns:xlink="http://www.w3.org/1999/xlink" x="0px" y="0px"
	 viewBox="0 0 14.17 14.17" style="enable-background:new 0 0 14.17 14.17;" xml:space="preserve">
<style type="text/css">
	.st0{fill:#FFFFFF;}
</style>
<path class="st0" d="M12.31,8.69L7.52,4.38c-0.24-0.21-0.6-0.21-0.84,0L1.71,8.86C1.58,8.98,1.51,9.13,1.5,9.3s0.05,0.33,0.16,0.45
	c0.12,0.13,0.29,0.21,0.46,0.21c0.15,0,0.3-0.06,0.42-0.16l4.56-4.11l4.37,3.94c0.12,0.11,0.28,0.17,0.45,0.16
	c0.17-0.01,0.32-0.08,0.43-0.21c0.11-0.13,0.17-0.29,0.16-0.45S12.44,8.81,12.31,8.69z"/>
</svg>
