<?xml version="1.0" encoding="utf-8"?>
<!-- Generator: Adobe Illustrator 23.0.2, SVG Export Plug-In . SVG Version: 6.00 Build 0)  -->
<svg version="1.1" id="Calque_1" xmlns="http://www.w3.org/2000/svg" xmlns:xlink="http://www.w3.org/1999/xlink" x="0px" y="0px"
	 viewBox="0 0 14.17 14.17" style="enable-background:new 0 0 14.17 14.17;" xml:space="preserve">
<style type="text/css">
	.st0{fill:url(#SVGID_1_);}
	.st1{fill:url(#SVGID_2_);}
	.st2{fill:url(#SVGID_3_);}
	.st3{fill:url(#SVGID_4_);}
	.st4{fill:url(#SVGID_5_);}
	.st5{fill:url(#SVGID_6_);}
	.st6{fill:url(#SVGID_7_);}
	.st7{fill:url(#SVGID_8_);}
	.st8{fill:url(#SVGID_9_);}
	.st9{fill:url(#SVGID_10_);}
	.st10{fill:url(#SVGID_11_);}
	.st11{fill:url(#SVGID_12_);}
	.st12{fill:url(#SVGID_13_);}
	.st13{fill:url(#SVGID_14_);}
	.st14{fill:url(#SVGID_15_);}
	.st15{fill:url(#SVGID_16_);}
	.st16{fill:url(#SVGID_17_);}
	.st17{fill:url(#SVGID_18_);}
	.st18{fill:url(#SVGID_19_);}
	.st19{fill:url(#SVGID_20_);}
	.st20{fill:url(#SVGID_21_);}
	.st21{fill:url(#SVGID_22_);}
	.st22{fill:url(#SVGID_23_);}
	.st23{fill:url(#SVGID_24_);}
	.st24{fill:url(#SVGID_25_);}
	.st25{fill:url(#SVGID_26_);}
	.st26{fill:url(#SVGID_27_);}
	.st27{fill:url(#SVGID_28_);}
	.st28{fill:url(#SVGID_29_);}
	.st29{fill:url(#SVGID_30_);}
	.st30{fill:url(#SVGID_31_);}
	.st31{fill:url(#SVGID_32_);}
	.st32{fill:url(#SVGID_33_);}
	.st33{fill:url(#SVGID_34_);}
	.st34{fill:url(#SVGID_35_);}
	.st35{fill:url(#SVGID_36_);}
	.st36{fill:url(#SVGID_37_);}
	.st37{fill:url(#SVGID_38_);}
	.st38{fill:url(#SVGID_39_);}
	.st39{fill:url(#SVGID_40_);}
	.st40{fill:url(#SVGID_41_);}
	.st41{fill:url(#SVGID_42_);}
	.st42{fill:url(#SVGID_43_);}
	.st43{fill:url(#SVGID_44_);}
	.st44{fill:url(#SVGID_45_);}
	.st45{fill:url(#SVGID_46_);}
	.st46{fill:url(#SVGID_47_);}
	.st47{fill:url(#SVGID_48_);}
	.st48{fill:url(#SVGID_49_);}
	.st49{fill:url(#SVGID_50_);}
	.st50{fill:url(#SVGID_51_);}
	.st51{fill:url(#SVGID_52_);}
	.st52{fill:url(#SVGID_53_);}
	.st53{fill:url(#SVGID_54_);}
	.st54{fill:url(#SVGID_55_);}
	.st55{fill:url(#SVGID_56_);}
	.st56{fill:url(#SVGID_57_);}
	.st57{fill:url(#SVGID_58_);}
	.st58{fill:url(#SVGID_59_);}
	.st59{fill:url(#SVGID_60_);}
	.st60{fill:url(#SVGID_61_);}
	.st61{fill:url(#SVGID_62_);}
	.st62{fill:url(#SVGID_63_);}
	.st63{fill:url(#SVGID_64_);}
	.st64{fill:url(#SVGID_65_);}
	.st65{fill:url(#SVGID_66_);}
	.st66{fill:url(#SVGID_67_);}
	.st67{fill:url(#SVGID_68_);}
	.st68{fill:url(#SVGID_69_);}
	.st69{fill:url(#SVGID_70_);}
	.st70{fill:url(#SVGID_71_);}
	.st71{fill:url(#SVGID_72_);}
	.st72{fill:url(#SVGID_73_);}
	.st73{fill:url(#SVGID_74_);}
	.st74{fill:url(#SVGID_75_);}
	.st75{fill:url(#SVGID_76_);}
	.st76{fill:url(#SVGID_77_);}
	.st77{fill:url(#SVGID_78_);}
	.st78{fill:url(#SVGID_79_);}
	.st79{fill:url(#SVGID_80_);}
	.st80{fill:url(#SVGID_81_);}
	.st81{fill:url(#SVGID_82_);}
	.st82{fill:url(#SVGID_83_);}
	.st83{fill:url(#SVGID_84_);}
	.st84{fill:url(#SVGID_85_);}
	.st85{fill:url(#SVGID_86_);}
	.st86{fill:url(#SVGID_87_);}
	.st87{fill:url(#SVGID_88_);}
	.st88{fill:url(#SVGID_89_);}
	.st89{fill:url(#SVGID_90_);}
	.st90{fill:url(#SVGID_91_);}
	.st91{fill:url(#SVGID_92_);}
	.st92{fill:url(#SVGID_93_);}
	.st93{fill:url(#SVGID_94_);}
	.st94{fill:url(#SVGID_95_);}
	.st95{fill:url(#SVGID_96_);}
	.st96{fill:url(#SVGID_97_);}
	.st97{fill:url(#SVGID_98_);}
	.st98{fill:url(#SVGID_99_);}
	.st99{fill:url(#SVGID_100_);}
	.st100{fill:url(#SVGID_101_);}
	.st101{fill:url(#SVGID_102_);}
	.st102{fill:url(#SVGID_103_);}
	.st103{fill:url(#SVGID_104_);}
	.st104{fill:url(#SVGID_105_);}
	.st105{fill:url(#SVGID_106_);}
	.st106{fill:url(#SVGID_107_);}
	.st107{fill:url(#SVGID_108_);}
	.st108{fill:url(#SVGID_109_);}
	.st109{fill:url(#SVGID_110_);}
	.st110{fill:url(#SVGID_111_);}
	.st111{fill:url(#SVGID_112_);}
	.st112{fill:url(#SVGID_113_);}
	.st113{fill:url(#SVGID_114_);}
	.st114{fill:url(#SVGID_115_);}
	.st115{fill:url(#SVGID_116_);}
	.st116{fill:url(#SVGID_117_);}
	.st117{fill:url(#SVGID_118_);}
	.st118{fill:url(#SVGID_119_);}
</style>
<g>
	<linearGradient id="SVGID_1_" gradientUnits="userSpaceOnUse" x1="-1.6073" y1="7.3435" x2="9.8058" y2="-4.7217">
		<stop  offset="0" style="stop-color:#9E2DDC"/>
		<stop  offset="1" style="stop-color:#0D6AD9"/>
	</linearGradient>
	<path class="st0" d="M2.81,0.97c-0.94,0-1.7,0.76-1.7,1.7c0,0.94,0.76,1.7,1.7,1.7c0.94,0,1.7-0.76,1.7-1.7
		C4.51,1.73,3.75,0.97,2.81,0.97z M3.81,2.67c0,0.55-0.45,1-1,1c-0.55,0-1-0.45-1-1c0-0.55,0.45-1,1-1
		C3.36,1.67,3.81,2.12,3.81,2.67z"/>
	<linearGradient id="SVGID_2_" gradientUnits="userSpaceOnUse" x1="0.6483" y1="9.4772" x2="12.0613" y2="-2.5881">
		<stop  offset="0" style="stop-color:#9E2DDC"/>
		<stop  offset="1" style="stop-color:#0D6AD9"/>
	</linearGradient>
	<path class="st1" d="M7.09,0.97c-0.94,0-1.7,0.76-1.7,1.7c0,0.94,0.76,1.7,1.7,1.7s1.7-0.76,1.7-1.7C8.79,1.73,8.02,0.97,7.09,0.97
		z M8.09,2.67c0,0.55-0.45,1-1,1s-1-0.45-1-1c0-0.55,0.45-1,1-1S8.09,2.12,8.09,2.67z"/>
	<linearGradient id="SVGID_3_" gradientUnits="userSpaceOnUse" x1="2.9039" y1="11.6108" x2="14.3169" y2="-0.4544">
		<stop  offset="0" style="stop-color:#9E2DDC"/>
		<stop  offset="1" style="stop-color:#0D6AD9"/>
	</linearGradient>
	<path class="st2" d="M11.36,4.37c0.94,0,1.7-0.76,1.7-1.7c0-0.94-0.76-1.7-1.7-1.7c-0.94,0-1.7,0.76-1.7,1.7
		C9.66,3.61,10.42,4.37,11.36,4.37z M10.36,2.67c0-0.55,0.45-1,1-1c0.55,0,1,0.45,1,1c0,0.55-0.45,1-1,1
		C10.81,3.67,10.36,3.22,10.36,2.67z"/>
	<linearGradient id="SVGID_4_" gradientUnits="userSpaceOnUse" x1="0.414" y1="9.2556" x2="11.8271" y2="-2.8097">
		<stop  offset="0" style="stop-color:#9E2DDC"/>
		<stop  offset="1" style="stop-color:#0D6AD9"/>
	</linearGradient>
	<path class="st3" d="M2.81,5.02c-0.94,0-1.7,0.76-1.7,1.7c0,0.94,0.76,1.7,1.7,1.7c0.94,0,1.7-0.76,1.7-1.7
		C4.51,5.78,3.75,5.02,2.81,5.02z M3.81,6.72c0,0.55-0.45,1-1,1c-0.55,0-1-0.45-1-1c0-0.55,0.45-1,1-1
		C3.36,5.72,3.81,6.17,3.81,6.72z"/>
	<linearGradient id="SVGID_5_" gradientUnits="userSpaceOnUse" x1="2.6696" y1="11.3892" x2="14.0826" y2="-0.676">
		<stop  offset="0" style="stop-color:#9E2DDC"/>
		<stop  offset="1" style="stop-color:#0D6AD9"/>
	</linearGradient>
	<path class="st4" d="M7.09,5.02c-0.94,0-1.7,0.76-1.7,1.7c0,0.94,0.76,1.7,1.7,1.7s1.7-0.76,1.7-1.7C8.79,5.78,8.02,5.02,7.09,5.02
		z M8.09,6.72c0,0.55-0.45,1-1,1s-1-0.45-1-1c0-0.55,0.45-1,1-1S8.09,6.17,8.09,6.72z"/>
	<linearGradient id="SVGID_6_" gradientUnits="userSpaceOnUse" x1="4.9252" y1="13.5228" x2="16.3382" y2="1.4576">
		<stop  offset="0" style="stop-color:#9E2DDC"/>
		<stop  offset="1" style="stop-color:#0D6AD9"/>
	</linearGradient>
	<path class="st5" d="M11.36,5.02c-0.94,0-1.7,0.76-1.7,1.7c0,0.94,0.76,1.7,1.7,1.7c0.94,0,1.7-0.76,1.7-1.7
		C13.06,5.78,12.3,5.02,11.36,5.02z M12.36,6.72c0,0.55-0.45,1-1,1c-0.55,0-1-0.45-1-1c0-0.55,0.45-1,1-1
		C11.91,5.72,12.36,6.17,12.36,6.72z"/>
	<linearGradient id="SVGID_7_" gradientUnits="userSpaceOnUse" x1="2.4353" y1="11.1676" x2="13.8484" y2="-0.8976">
		<stop  offset="0" style="stop-color:#9E2DDC"/>
		<stop  offset="1" style="stop-color:#0D6AD9"/>
	</linearGradient>
	<path class="st6" d="M2.81,9.07c-0.94,0-1.7,0.76-1.7,1.7c0,0.94,0.76,1.7,1.7,1.7c0.94,0,1.7-0.76,1.7-1.7
		C4.51,9.83,3.75,9.07,2.81,9.07z M3.81,10.77c0,0.55-0.45,1-1,1c-0.55,0-1-0.45-1-1c0-0.55,0.45-1,1-1
		C3.36,9.77,3.81,10.22,3.81,10.77z"/>
	<linearGradient id="SVGID_8_" gradientUnits="userSpaceOnUse" x1="4.6909" y1="13.3012" x2="16.1039" y2="1.236">
		<stop  offset="0" style="stop-color:#9E2DDC"/>
		<stop  offset="1" style="stop-color:#0D6AD9"/>
	</linearGradient>
	<path class="st7" d="M7.09,9.07c-0.94,0-1.7,0.76-1.7,1.7c0,0.94,0.76,1.7,1.7,1.7s1.7-0.76,1.7-1.7C8.79,9.83,8.02,9.07,7.09,9.07
		z M8.09,10.77c0,0.55-0.45,1-1,1s-1-0.45-1-1c0-0.55,0.45-1,1-1S8.09,10.22,8.09,10.77z"/>
	<linearGradient id="SVGID_9_" gradientUnits="userSpaceOnUse" x1="6.9465" y1="15.4349" x2="18.3595" y2="3.3696">
		<stop  offset="0" style="stop-color:#9E2DDC"/>
		<stop  offset="1" style="stop-color:#0D6AD9"/>
	</linearGradient>
	<path class="st8" d="M11.36,9.07c-0.94,0-1.7,0.76-1.7,1.7c0,0.94,0.76,1.7,1.7,1.7c0.94,0,1.7-0.76,1.7-1.7
		C13.06,9.83,12.3,9.07,11.36,9.07z M12.36,10.77c0,0.55-0.45,1-1,1c-0.55,0-1-0.45-1-1c0-0.55,0.45-1,1-1
		C11.91,9.77,12.36,10.22,12.36,10.77z"/>
</g>
</svg>
