<?xml version="1.0" encoding="utf-8"?>
<!-- Generator: Adobe Illustrator 23.0.2, SVG Export Plug-In . SVG Version: 6.00 Build 0)  -->
<svg version="1.1" id="Calque_1" xmlns="http://www.w3.org/2000/svg" xmlns:xlink="http://www.w3.org/1999/xlink" x="0px" y="0px"
	 viewBox="0 0 14.17 14.17" style="enable-background:new 0 0 14.17 14.17;" xml:space="preserve">
<style type="text/css">
	.st0{fill:url(#SVGID_1_);}
	.st1{fill:url(#SVGID_2_);}
	.st2{fill:url(#SVGID_3_);}
	.st3{fill:url(#SVGID_4_);}
	.st4{fill:url(#SVGID_5_);}
	.st5{fill:url(#SVGID_6_);}
	.st6{fill:url(#SVGID_7_);}
	.st7{fill:url(#SVGID_8_);}
	.st8{fill:url(#SVGID_9_);}
	.st9{fill:url(#SVGID_10_);}
	.st10{fill:url(#SVGID_11_);}
	.st11{fill:url(#SVGID_12_);}
	.st12{fill:url(#SVGID_13_);}
	.st13{fill:url(#SVGID_14_);}
	.st14{fill:url(#SVGID_15_);}
	.st15{fill:url(#SVGID_16_);}
	.st16{fill:url(#SVGID_17_);}
	.st17{fill:url(#SVGID_18_);}
	.st18{fill:url(#SVGID_19_);}
	.st19{fill:url(#SVGID_20_);}
	.st20{fill:url(#SVGID_21_);}
	.st21{fill:url(#SVGID_22_);}
	.st22{fill:url(#SVGID_23_);}
	.st23{fill:url(#SVGID_24_);}
	.st24{fill:url(#SVGID_25_);}
	.st25{fill:url(#SVGID_26_);}
	.st26{fill:url(#SVGID_27_);}
	.st27{fill:url(#SVGID_28_);}
	.st28{fill:url(#SVGID_29_);}
	.st29{fill:url(#SVGID_30_);}
	.st30{fill:url(#SVGID_31_);}
	.st31{fill:url(#SVGID_32_);}
	.st32{fill:url(#SVGID_33_);}
	.st33{fill:url(#SVGID_34_);}
	.st34{fill:url(#SVGID_35_);}
	.st35{fill:url(#SVGID_36_);}
	.st36{fill:url(#SVGID_37_);}
	.st37{fill:url(#SVGID_38_);}
	.st38{fill:url(#SVGID_39_);}
	.st39{fill:url(#SVGID_40_);}
	.st40{fill:url(#SVGID_41_);}
	.st41{fill:url(#SVGID_42_);}
	.st42{fill:url(#SVGID_43_);}
	.st43{fill:url(#SVGID_44_);}
	.st44{fill:url(#SVGID_45_);}
	.st45{fill:url(#SVGID_46_);}
	.st46{fill:url(#SVGID_47_);}
	.st47{fill:url(#SVGID_48_);}
	.st48{fill:url(#SVGID_49_);}
	.st49{fill:url(#SVGID_50_);}
	.st50{fill:url(#SVGID_51_);}
	.st51{fill:url(#SVGID_52_);}
	.st52{fill:url(#SVGID_53_);}
	.st53{fill:url(#SVGID_54_);}
	.st54{fill:url(#SVGID_55_);}
	.st55{fill:url(#SVGID_56_);}
	.st56{fill:url(#SVGID_57_);}
	.st57{fill:url(#SVGID_58_);}
	.st58{fill:url(#SVGID_59_);}
	.st59{fill:url(#SVGID_60_);}
	.st60{fill:url(#SVGID_61_);}
	.st61{fill:url(#SVGID_62_);}
	.st62{fill:url(#SVGID_63_);}
	.st63{fill:url(#SVGID_64_);}
	.st64{fill:url(#SVGID_65_);}
	.st65{fill:url(#SVGID_66_);}
	.st66{fill:url(#SVGID_67_);}
	.st67{fill:url(#SVGID_68_);}
	.st68{fill:url(#SVGID_69_);}
	.st69{fill:url(#SVGID_70_);}
	.st70{fill:url(#SVGID_71_);}
	.st71{fill:url(#SVGID_72_);}
	.st72{fill:url(#SVGID_73_);}
	.st73{fill:url(#SVGID_74_);}
	.st74{fill:url(#SVGID_75_);}
	.st75{fill:url(#SVGID_76_);}
	.st76{fill:url(#SVGID_77_);}
	.st77{fill:url(#SVGID_78_);}
	.st78{fill:url(#SVGID_79_);}
	.st79{fill:url(#SVGID_80_);}
	.st80{fill:url(#SVGID_81_);}
	.st81{fill:url(#SVGID_82_);}
	.st82{fill:url(#SVGID_83_);}
	.st83{fill:url(#SVGID_84_);}
	.st84{fill:url(#SVGID_85_);}
	.st85{fill:url(#SVGID_86_);}
	.st86{fill:url(#SVGID_87_);}
	.st87{fill:url(#SVGID_88_);}
	.st88{fill:url(#SVGID_89_);}
	.st89{opacity:0.75;fill:url(#SVGID_90_);}
	.st90{fill:url(#SVGID_91_);}
	.st91{fill:url(#SVGID_92_);}
	.st92{fill:url(#SVGID_93_);}
	.st93{fill:url(#SVGID_94_);}
	.st94{fill:url(#SVGID_95_);}
	.st95{fill:url(#SVGID_96_);}
	.st96{fill:url(#SVGID_97_);}
	.st97{fill:url(#SVGID_98_);}
	.st98{fill:url(#SVGID_99_);}
	.st99{fill:url(#SVGID_100_);}
	.st100{fill:url(#SVGID_101_);}
	.st101{fill:url(#SVGID_102_);}
	.st102{fill:url(#SVGID_103_);}
	.st103{fill:url(#SVGID_104_);}
	.st104{fill:url(#SVGID_105_);}
	.st105{fill:url(#SVGID_106_);}
	.st106{fill:url(#SVGID_107_);}
	.st107{fill:url(#SVGID_108_);}
	.st108{fill:url(#SVGID_109_);}
	.st109{fill:url(#SVGID_110_);}
	.st110{fill:url(#SVGID_111_);}
	.st111{fill:url(#SVGID_112_);}
	.st112{fill:url(#SVGID_113_);}
	.st113{fill:url(#SVGID_114_);}
	.st114{fill:url(#SVGID_115_);}
	.st115{fill:url(#SVGID_116_);}
	.st116{fill:url(#SVGID_117_);}
	.st117{fill:url(#SVGID_118_);}
	.st118{fill:url(#SVGID_119_);}
	.st119{fill:url(#SVGID_120_);}
	.st120{fill-rule:evenodd;clip-rule:evenodd;fill:url(#SVGID_121_);}
	.st121{fill:url(#SVGID_122_);}
	.st122{fill:url(#SVGID_123_);}
	.st123{fill:url(#SVGID_124_);}
	.st124{fill:url(#SVGID_125_);}
	.st125{fill:url(#SVGID_126_);}
	.st126{fill:url(#SVGID_127_);}
	.st127{fill:url(#SVGID_128_);}
	.st128{fill:url(#SVGID_129_);}
	.st129{fill:url(#SVGID_130_);}
	.st130{fill:url(#SVGID_131_);}
	.st131{fill:url(#SVGID_132_);}
	.st132{fill:url(#SVGID_133_);}
	.st133{fill:url(#SVGID_134_);}
	.st134{fill:url(#SVGID_135_);}
	.st135{fill:url(#SVGID_136_);}
</style>
<g>
	<linearGradient id="SVGID_1_" gradientUnits="userSpaceOnUse" x1="-3.9227" y1="7.1721" x2="6.7403" y2="-3.6866">
		<stop  offset="0" style="stop-color:#9E2DDC"/>
		<stop  offset="1" style="stop-color:#0D6AD9"/>
	</linearGradient>
	<path class="st0" d="M1.78,1.21h1.06c0.21,0,0.39-0.17,0.39-0.39S3.05,0.44,2.84,0.44H1.78c-0.21,0-0.39,0.17-0.39,0.39
		S1.57,1.21,1.78,1.21z"/>
	<linearGradient id="SVGID_2_" gradientUnits="userSpaceOnUse" x1="-3.8367" y1="7.2566" x2="6.8263" y2="-3.6021">
		<stop  offset="0" style="stop-color:#9E2DDC"/>
		<stop  offset="1" style="stop-color:#0D6AD9"/>
	</linearGradient>
	<path class="st1" d="M0.98,3.27c0.21,0,0.39-0.17,0.39-0.39V1.83c0-0.21-0.17-0.39-0.39-0.39S0.59,1.61,0.59,1.83v1.06
		C0.59,3.1,0.76,3.27,0.98,3.27z"/>
	<linearGradient id="SVGID_3_" gradientUnits="userSpaceOnUse" x1="1.4291" y1="12.4275" x2="12.0921" y2="1.5688">
		<stop  offset="0" style="stop-color:#9E2DDC"/>
		<stop  offset="1" style="stop-color:#0D6AD9"/>
	</linearGradient>
	<path class="st2" d="M7.24,5.66H1.5c-0.5,0-0.91,0.41-0.91,0.91v5.74c0,0.5,0.41,0.91,0.91,0.91h5.74c0.5,0,0.91-0.41,0.91-0.91
		V6.57C8.15,6.06,7.74,5.66,7.24,5.66z M1.36,6.57c0-0.08,0.06-0.14,0.14-0.14h5.74c0.08,0,0.14,0.06,0.14,0.14v5.74
		c0,0.08-0.06,0.14-0.14,0.14H1.5c-0.08,0-0.14-0.06-0.14-0.14V6.57z"/>
	<linearGradient id="SVGID_4_" gradientUnits="userSpaceOnUse" x1="-2.6453" y1="8.4266" x2="8.0178" y2="-2.4321">
		<stop  offset="0" style="stop-color:#9E2DDC"/>
		<stop  offset="1" style="stop-color:#0D6AD9"/>
	</linearGradient>
	<path class="st3" d="M0.98,5.39c0.21,0,0.39-0.17,0.39-0.39V4.48c0-0.21-0.17-0.39-0.39-0.39S0.59,4.26,0.59,4.48V5
		C0.59,5.21,0.76,5.39,0.98,5.39z"/>
	<linearGradient id="SVGID_5_" gradientUnits="userSpaceOnUse" x1="0.11" y1="11.1321" x2="10.773" y2="0.2734">
		<stop  offset="0" style="stop-color:#9E2DDC"/>
		<stop  offset="1" style="stop-color:#0D6AD9"/>
	</linearGradient>
	<path class="st4" d="M9.7,1.21h1.06c0.21,0,0.39-0.17,0.39-0.39s-0.17-0.39-0.39-0.39H9.7c-0.21,0-0.39,0.17-0.39,0.39
		S9.49,1.21,9.7,1.21z"/>
	<linearGradient id="SVGID_6_" gradientUnits="userSpaceOnUse" x1="-2.5787" y1="8.492" x2="8.0844" y2="-2.3667">
		<stop  offset="0" style="stop-color:#9E2DDC"/>
		<stop  offset="1" style="stop-color:#0D6AD9"/>
	</linearGradient>
	<path class="st5" d="M4.42,1.21h1.06c0.21,0,0.39-0.17,0.39-0.39S5.69,0.44,5.48,0.44H4.42c-0.21,0-0.39,0.17-0.39,0.39
		S4.21,1.21,4.42,1.21z"/>
	<linearGradient id="SVGID_7_" gradientUnits="userSpaceOnUse" x1="-1.2345" y1="9.8119" x2="9.4286" y2="-1.0468">
		<stop  offset="0" style="stop-color:#9E2DDC"/>
		<stop  offset="1" style="stop-color:#0D6AD9"/>
	</linearGradient>
	<path class="st6" d="M7.06,1.21h1.06c0.21,0,0.39-0.17,0.39-0.39S8.33,0.44,8.12,0.44H7.06c-0.21,0-0.39,0.17-0.39,0.39
		S6.85,1.21,7.06,1.21z"/>
	<linearGradient id="SVGID_8_" gradientUnits="userSpaceOnUse" x1="5.5269" y1="16.4514" x2="16.1899" y2="5.5927">
		<stop  offset="0" style="stop-color:#9E2DDC"/>
		<stop  offset="1" style="stop-color:#0D6AD9"/>
	</linearGradient>
	<path class="st7" d="M12.98,7.95c-0.21,0-0.39,0.17-0.39,0.39v1.06c0,0.21,0.17,0.39,0.39,0.39s0.39-0.17,0.39-0.39V8.33
		C13.36,8.12,13.19,7.95,12.98,7.95z"/>
	<linearGradient id="SVGID_9_" gradientUnits="userSpaceOnUse" x1="2.8868" y1="13.8589" x2="13.5498" y2="3.0002">
		<stop  offset="0" style="stop-color:#9E2DDC"/>
		<stop  offset="1" style="stop-color:#0D6AD9"/>
	</linearGradient>
	<path class="st8" d="M12.98,2.67c-0.21,0-0.39,0.17-0.39,0.39v1.06c0,0.21,0.17,0.39,0.39,0.39s0.39-0.17,0.39-0.39V3.05
		C13.36,2.84,13.19,2.67,12.98,2.67z"/>
	<linearGradient id="SVGID_10_" gradientUnits="userSpaceOnUse" x1="1.5079" y1="12.5049" x2="12.1709" y2="1.6462">
		<stop  offset="0" style="stop-color:#9E2DDC"/>
		<stop  offset="1" style="stop-color:#0D6AD9"/>
	</linearGradient>
	<path class="st9" d="M12.46,0.44h-0.11c-0.21,0-0.39,0.17-0.39,0.39s0.17,0.39,0.39,0.39h0.11c0.08,0,0.14,0.06,0.14,0.14v0.12
		c0,0.21,0.17,0.39,0.39,0.39s0.39-0.17,0.39-0.39V1.35C13.36,0.85,12.96,0.44,12.46,0.44z"/>
	<linearGradient id="SVGID_11_" gradientUnits="userSpaceOnUse" x1="4.2069" y1="15.1552" x2="14.8699" y2="4.2965">
		<stop  offset="0" style="stop-color:#9E2DDC"/>
		<stop  offset="1" style="stop-color:#0D6AD9"/>
	</linearGradient>
	<path class="st10" d="M12.98,5.31c-0.21,0-0.39,0.17-0.39,0.39v1.06c0,0.21,0.17,0.39,0.39,0.39s0.39-0.17,0.39-0.39V5.7
		C13.36,5.48,13.19,5.31,12.98,5.31z"/>
	<linearGradient id="SVGID_12_" gradientUnits="userSpaceOnUse" x1="6.847" y1="17.7477" x2="17.51" y2="6.889">
		<stop  offset="0" style="stop-color:#9E2DDC"/>
		<stop  offset="1" style="stop-color:#0D6AD9"/>
	</linearGradient>
	<path class="st11" d="M12.98,10.59c-0.21,0-0.39,0.17-0.39,0.39v1.06c0,0.21,0.17,0.39,0.39,0.39s0.39-0.17,0.39-0.39v-1.06
		C13.36,10.76,13.19,10.59,12.98,10.59z"/>
	<linearGradient id="SVGID_13_" gradientUnits="userSpaceOnUse" x1="5.5159" y1="16.4406" x2="16.1789" y2="5.5819">
		<stop  offset="0" style="stop-color:#9E2DDC"/>
		<stop  offset="1" style="stop-color:#0D6AD9"/>
	</linearGradient>
	<path class="st12" d="M9.33,12.44H8.8c-0.21,0-0.39,0.17-0.39,0.39s0.17,0.39,0.39,0.39h0.52c0.21,0,0.39-0.17,0.39-0.39
		S9.54,12.44,9.33,12.44z"/>
	<linearGradient id="SVGID_14_" gradientUnits="userSpaceOnUse" x1="1.4844" y1="12.4818" x2="12.1475" y2="1.6231">
		<stop  offset="0" style="stop-color:#9E2DDC"/>
		<stop  offset="1" style="stop-color:#0D6AD9"/>
	</linearGradient>
	<path class="st13" d="M11.03,3.32v1.16c0,0.21,0.17,0.39,0.39,0.39s0.39-0.17,0.39-0.39V2.39c0-0.05-0.01-0.1-0.03-0.15
		c-0.02-0.04-0.04-0.08-0.06-0.1l-0.02-0.03c-0.04-0.04-0.08-0.06-0.12-0.08c-0.03-0.01-0.06-0.02-0.09-0.02L9.33,2
		C9.11,2,8.94,2.18,8.94,2.39s0.17,0.39,0.39,0.39h1.16L8.01,5.25c-0.15,0.15-0.15,0.4,0,0.55c0.08,0.08,0.17,0.11,0.27,0.11
		s0.2-0.04,0.27-0.11L11.03,3.32z"/>
	<linearGradient id="SVGID_15_" gradientUnits="userSpaceOnUse" x1="6.7241" y1="17.6271" x2="17.3871" y2="6.7684">
		<stop  offset="0" style="stop-color:#9E2DDC"/>
		<stop  offset="1" style="stop-color:#0D6AD9"/>
	</linearGradient>
	<path class="st14" d="M11.97,12.44h-1.06c-0.21,0-0.39,0.17-0.39,0.39s0.17,0.39,0.39,0.39h1.06c0.21,0,0.39-0.17,0.39-0.39
		S12.18,12.44,11.97,12.44z"/>
</g>
</svg>
