<?xml version="1.0" encoding="utf-8"?>
<!-- Generator: Adobe Illustrator 23.0.2, SVG Export Plug-In . SVG Version: 6.00 Build 0)  -->
<svg version="1.1" id="Calque_1" xmlns="http://www.w3.org/2000/svg" xmlns:xlink="http://www.w3.org/1999/xlink" x="0px" y="0px"
	 viewBox="0 0 14.17 14.17" style="enable-background:new 0 0 14.17 14.17;" xml:space="preserve">
<style type="text/css">
	.st0{fill:#FFFFFF;}
</style>
<g>
	<path class="st0" d="M2.54,4.2h9.1c0.28,0,0.5-0.22,0.5-0.5s-0.22-0.5-0.5-0.5h-9.1c-0.28,0-0.5,0.22-0.5,0.5S2.26,4.2,2.54,4.2z"
		/>
	<path class="st0" d="M11.64,6.27h-9.1c-0.28,0-0.5,0.22-0.5,0.5s0.22,0.5,0.5,0.5h9.1c0.28,0,0.5-0.22,0.5-0.5
		S11.91,6.27,11.64,6.27z"/>
	<path class="st0" d="M11.64,9.33h-9.1c-0.28,0-0.5,0.22-0.5,0.5s0.22,0.5,0.5,0.5h9.1c0.28,0,0.5-0.22,0.5-0.5
		S11.91,9.33,11.64,9.33z"/>
</g>
</svg>
