<?xml version="1.0" encoding="utf-8"?>
<!-- Generator: Adobe Illustrator 23.0.2, SVG Export Plug-In . SVG Version: 6.00 Build 0)  -->
<svg version="1.1" id="Calque_1" xmlns="http://www.w3.org/2000/svg" xmlns:xlink="http://www.w3.org/1999/xlink" x="0px" y="0px"
	 viewBox="0 0 14.17 14.17" style="enable-background:new 0 0 14.17 14.17;" xml:space="preserve">
<style type="text/css">
	.st0{fill:#FFFFFF;}
</style>
<g>
	<path class="st0" d="M7.09,0.56c3.6,0,6.53,2.92,6.53,6.53s-2.92,6.53-6.53,6.53s-6.53-2.92-6.53-6.53S3.48,0.56,7.09,0.56z
		 M10.73,11.2C9.89,10.1,8.56,9.39,7.09,9.39s-2.8,0.71-3.64,1.81c0.97,0.86,2.24,1.38,3.64,1.38S9.76,12.06,10.73,11.2z
		 M2.74,10.44C3.39,9.63,4.27,9,5.29,8.65c-0.91-0.6-1.47-1.62-1.47-2.72c0-1.8,1.46-3.26,3.26-3.26c1.8,0,3.26,1.46,3.26,3.26
		c0,1.1-0.55,2.12-1.47,2.72c1.02,0.35,1.9,0.98,2.55,1.79c0.72-0.93,1.14-2.09,1.14-3.36c0-3.03-2.46-5.49-5.49-5.49
		S1.59,4.05,1.59,7.09C1.59,8.35,2.02,9.51,2.74,10.44z M7.09,3.7c-1.23,0-2.23,1-2.23,2.23c0,1.23,1,2.23,2.23,2.23
		s2.23-1,2.23-2.23C9.32,4.7,8.32,3.7,7.09,3.7z"/>
</g>
</svg>
