<?xml version="1.0" encoding="utf-8"?>
<!-- Generator: Adobe Illustrator 23.0.2, SVG Export Plug-In . SVG Version: 6.00 Build 0)  -->
<svg version="1.1" id="Calque_1" xmlns="http://www.w3.org/2000/svg" xmlns:xlink="http://www.w3.org/1999/xlink" x="0px" y="0px"
	 viewBox="0 0 14.17 14.17" style="enable-background:new 0 0 14.17 14.17;" xml:space="preserve">
<style type="text/css">
	.st0{fill:#FFFFFF;}
</style>
<g>
	<path class="st0" d="M7.09,0.85c3.6,0,6.53,2.92,6.53,6.53s-2.92,6.53-6.53,6.53s-6.53-2.92-6.53-6.53S3.48,0.85,7.09,0.85z
		 M2.74,10.73c0.65-0.81,1.53-1.44,2.55-1.79c-0.91-0.6-1.47-1.62-1.47-2.72c0-1.8,1.46-3.26,3.26-3.26c1.8,0,3.26,1.46,3.26,3.26
		c0,1.1-0.55,2.12-1.47,2.72c1.02,0.35,1.9,0.98,2.55,1.79c0.72-0.93,1.14-2.09,1.14-3.36c0-3.03-2.46-5.49-5.49-5.49
		S1.59,4.34,1.59,7.38C1.59,8.64,2.02,9.8,2.74,10.73z"/>
</g>
</svg>
