<?xml version="1.0" encoding="utf-8"?>
<!-- Generator: Adobe Illustrator 23.0.2, SVG Export Plug-In . SVG Version: 6.00 Build 0)  -->
<svg version="1.1" id="Calque_1" xmlns="http://www.w3.org/2000/svg" xmlns:xlink="http://www.w3.org/1999/xlink" x="0px" y="0px"
	 viewBox="0 0 14.17 14.17" style="enable-background:new 0 0 14.17 14.17;" xml:space="preserve">
<style type="text/css">
	.st0{fill:url(#SVGID_1_);}
	.st1{fill:url(#SVGID_2_);}
	.st2{fill:url(#SVGID_3_);}
	.st3{fill:url(#SVGID_4_);}
	.st4{fill:url(#SVGID_5_);}
	.st5{fill:url(#SVGID_6_);}
	.st6{fill:url(#SVGID_7_);}
	.st7{fill:url(#SVGID_8_);}
	.st8{fill:url(#SVGID_9_);}
	.st9{fill:url(#SVGID_10_);}
	.st10{fill:url(#SVGID_11_);}
	.st11{fill:url(#SVGID_12_);}
	.st12{fill:url(#SVGID_13_);}
	.st13{fill:url(#SVGID_14_);}
	.st14{fill:url(#SVGID_15_);}
	.st15{fill:url(#SVGID_16_);}
	.st16{fill:url(#SVGID_17_);}
	.st17{fill:url(#SVGID_18_);}
	.st18{fill:url(#SVGID_19_);}
	.st19{fill:url(#SVGID_20_);}
	.st20{fill:url(#SVGID_21_);}
	.st21{fill:url(#SVGID_22_);}
	.st22{fill:url(#SVGID_23_);}
	.st23{fill:url(#SVGID_24_);}
	.st24{fill:url(#SVGID_25_);}
	.st25{fill:url(#SVGID_26_);}
	.st26{fill:url(#SVGID_27_);}
	.st27{fill:url(#SVGID_28_);}
	.st28{fill:url(#SVGID_29_);}
	.st29{fill:url(#SVGID_30_);}
	.st30{fill:url(#SVGID_31_);}
	.st31{fill:url(#SVGID_32_);}
	.st32{fill:url(#SVGID_33_);}
	.st33{fill:url(#SVGID_34_);}
	.st34{fill:url(#SVGID_35_);}
	.st35{fill:url(#SVGID_36_);}
	.st36{fill:url(#SVGID_37_);}
	.st37{fill:url(#SVGID_38_);}
	.st38{fill:url(#SVGID_39_);}
	.st39{fill:url(#SVGID_40_);}
	.st40{fill:url(#SVGID_41_);}
	.st41{fill:url(#SVGID_42_);}
	.st42{fill:url(#SVGID_43_);}
	.st43{fill:url(#SVGID_44_);}
	.st44{fill:url(#SVGID_45_);}
	.st45{fill:url(#SVGID_46_);}
	.st46{fill:url(#SVGID_47_);}
	.st47{fill:url(#SVGID_48_);}
	.st48{fill:url(#SVGID_49_);}
	.st49{fill:url(#SVGID_50_);}
	.st50{fill:url(#SVGID_51_);}
	.st51{fill:url(#SVGID_52_);}
	.st52{fill:url(#SVGID_53_);}
	.st53{fill:url(#SVGID_54_);}
	.st54{fill:url(#SVGID_55_);}
	.st55{fill:url(#SVGID_56_);}
	.st56{fill:url(#SVGID_57_);}
	.st57{fill:url(#SVGID_58_);}
	.st58{fill:url(#SVGID_59_);}
	.st59{fill:url(#SVGID_60_);}
	.st60{fill:url(#SVGID_61_);}
	.st61{fill:url(#SVGID_62_);}
	.st62{fill:url(#SVGID_63_);}
	.st63{fill:url(#SVGID_64_);}
	.st64{fill:url(#SVGID_65_);}
	.st65{fill:url(#SVGID_66_);}
	.st66{fill:url(#SVGID_67_);}
	.st67{fill:url(#SVGID_68_);}
	.st68{fill:url(#SVGID_69_);}
	.st69{fill:url(#SVGID_70_);}
	.st70{fill:url(#SVGID_71_);}
	.st71{fill:url(#SVGID_72_);}
	.st72{fill:url(#SVGID_73_);}
	.st73{fill:url(#SVGID_74_);}
	.st74{fill:url(#SVGID_75_);}
	.st75{fill:url(#SVGID_76_);}
	.st76{fill:url(#SVGID_77_);}
	.st77{fill:url(#SVGID_78_);}
	.st78{fill:url(#SVGID_79_);}
	.st79{fill:url(#SVGID_80_);}
	.st80{fill:url(#SVGID_81_);}
	.st81{fill:url(#SVGID_82_);}
	.st82{fill:url(#SVGID_83_);}
	.st83{fill:url(#SVGID_84_);}
	.st84{fill:url(#SVGID_85_);}
	.st85{fill:url(#SVGID_86_);}
	.st86{fill:url(#SVGID_87_);}
	.st87{fill:url(#SVGID_88_);}
	.st88{fill:url(#SVGID_89_);}
	.st89{fill:url(#SVGID_90_);}
	.st90{fill:url(#SVGID_91_);}
	.st91{fill:url(#SVGID_92_);}
	.st92{fill:url(#SVGID_93_);}
	.st93{fill:url(#SVGID_94_);}
	.st94{fill:url(#SVGID_95_);}
	.st95{fill:url(#SVGID_96_);}
	.st96{fill:url(#SVGID_97_);}
	.st97{fill:url(#SVGID_98_);}
	.st98{fill:url(#SVGID_99_);}
	.st99{fill:url(#SVGID_100_);}
	.st100{fill:url(#SVGID_101_);}
	.st101{fill:url(#SVGID_102_);}
	.st102{fill:url(#SVGID_103_);}
	.st103{fill:url(#SVGID_104_);}
	.st104{fill:url(#SVGID_105_);}
	.st105{fill:url(#SVGID_106_);}
	.st106{fill:url(#SVGID_107_);}
	.st107{fill:url(#SVGID_108_);}
	.st108{fill:url(#SVGID_109_);}
	.st109{fill:url(#SVGID_110_);}
	.st110{fill:url(#SVGID_111_);}
	.st111{fill:url(#SVGID_112_);}
	.st112{fill:url(#SVGID_113_);}
	.st113{fill:url(#SVGID_114_);}
	.st114{fill:url(#SVGID_115_);}
	.st115{fill:url(#SVGID_116_);}
	.st116{fill:url(#SVGID_117_);}
	.st117{fill:url(#SVGID_118_);}
	.st118{fill:url(#SVGID_119_);}
</style>
<g>
	<linearGradient id="SVGID_1_" gradientUnits="userSpaceOnUse" x1="-1.5741" y1="10.0357" x2="9.9694" y2="-0.5296">
		<stop  offset="0" style="stop-color:#9E2DDC"/>
		<stop  offset="1" style="stop-color:#0D6AD9"/>
	</linearGradient>
	<path class="st0" d="M5.79,2.57c0-0.72,0.58-1.3,1.3-1.3s1.3,0.58,1.3,1.3c0,0.02,0,0.02,0,0.04h0.87c0-0.02,0-0.02,0-0.04
		c0-1.2-0.97-2.17-2.17-2.17S4.92,1.37,4.92,2.57c0,0.02,0,0.02,0,0.04h0.87C5.79,2.59,5.79,2.59,5.79,2.57z"/>
	<linearGradient id="SVGID_2_" gradientUnits="userSpaceOnUse" x1="-1.3467" y1="10.2842" x2="10.1968" y2="-0.281">
		<stop  offset="0" style="stop-color:#9E2DDC"/>
		<stop  offset="1" style="stop-color:#0D6AD9"/>
	</linearGradient>
	<path class="st1" d="M6.22,2.57c0,0.47,0.39,0.87,0.87,0.87c0.47,0,0.87-0.39,0.87-0.87S7.56,1.7,7.09,1.7
		C6.61,1.7,6.22,2.09,6.22,2.57z"/>
	<linearGradient id="SVGID_3_" gradientUnits="userSpaceOnUse" x1="3.3026" y1="15.3639" x2="14.8461" y2="4.7987">
		<stop  offset="0" style="stop-color:#9E2DDC"/>
		<stop  offset="1" style="stop-color:#0D6AD9"/>
	</linearGradient>
	<path class="st2" d="M8.39,11.44c0,0.72-0.58,1.3-1.3,1.3s-1.3-0.58-1.3-1.3c0-0.02,0-0.02,0-0.04H4.92c0,0.02,0,0.02,0,0.04
		c0,1.2,0.97,2.17,2.17,2.17s2.17-0.97,2.17-2.17c0-0.02,0-0.02,0-0.04H8.39C8.39,11.42,8.39,11.42,8.39,11.44z"/>
	<linearGradient id="SVGID_4_" gradientUnits="userSpaceOnUse" x1="3.0751" y1="15.1153" x2="14.6185" y2="4.5501">
		<stop  offset="0" style="stop-color:#9E2DDC"/>
		<stop  offset="1" style="stop-color:#0D6AD9"/>
	</linearGradient>
	<path class="st3" d="M7.95,11.44c0-0.47-0.39-0.87-0.87-0.87c-0.47,0-0.87,0.39-0.87,0.87c0,0.47,0.39,0.87,0.87,0.87
		C7.56,12.31,7.95,11.92,7.95,11.44z"/>
	<linearGradient id="SVGID_5_" gradientUnits="userSpaceOnUse" x1="1.4944" y1="13.3883" x2="13.0379" y2="2.8231">
		<stop  offset="0" style="stop-color:#9E2DDC"/>
		<stop  offset="1" style="stop-color:#0D6AD9"/>
	</linearGradient>
	<path class="st4" d="M10.22,3.62c0.62-0.37,1.42-0.17,1.8,0.45c0.37,0.62,0.17,1.42-0.45,1.8c0,0-0.02,0.02-0.04,0.02l0.45,0.74
		c0.02,0,0.02-0.02,0.04-0.02c1.03-0.62,1.36-1.94,0.76-2.97c-0.6-1.03-1.96-1.38-2.99-0.76L9.77,2.9L10.22,3.62
		C10.22,3.62,10.22,3.62,10.22,3.62z"/>
	<linearGradient id="SVGID_6_" gradientUnits="userSpaceOnUse" x1="0.6142" y1="12.4266" x2="12.1577" y2="1.8614">
		<stop  offset="0" style="stop-color:#9E2DDC"/>
		<stop  offset="1" style="stop-color:#0D6AD9"/>
	</linearGradient>
	<path class="st5" d="M10.22,3.64l-0.01-0.01C10.21,3.63,10.21,3.64,10.22,3.64z"/>
	<linearGradient id="SVGID_7_" gradientUnits="userSpaceOnUse" x1="1.4644" y1="13.3555" x2="13.0079" y2="2.7903">
		<stop  offset="0" style="stop-color:#9E2DDC"/>
		<stop  offset="1" style="stop-color:#0D6AD9"/>
	</linearGradient>
	<path class="st6" d="M11.65,4.28c-0.25-0.41-0.78-0.56-1.2-0.31c-0.41,0.25-0.56,0.78-0.31,1.2c0.25,0.43,0.78,0.56,1.2,0.31
		C11.75,5.23,11.9,4.69,11.65,4.28z"/>
	<linearGradient id="SVGID_8_" gradientUnits="userSpaceOnUse" x1="1.1142" y1="12.9729" x2="12.6577" y2="2.4077">
		<stop  offset="0" style="stop-color:#9E2DDC"/>
		<stop  offset="1" style="stop-color:#0D6AD9"/>
	</linearGradient>
	<path class="st7" d="M3.95,10.37l0.01,0.01C3.96,10.38,3.96,10.37,3.95,10.37z"/>
	<linearGradient id="SVGID_9_" gradientUnits="userSpaceOnUse" x1="0.234" y1="12.0112" x2="11.7774" y2="1.446">
		<stop  offset="0" style="stop-color:#9E2DDC"/>
		<stop  offset="1" style="stop-color:#0D6AD9"/>
	</linearGradient>
	<path class="st8" d="M3.95,10.39c-0.62,0.37-1.42,0.17-1.8-0.45s-0.17-1.42,0.45-1.8c0,0,0.02-0.02,0.04-0.02L2.19,7.38
		c-0.02,0-0.02,0.02-0.04,0.02c-1.03,0.62-1.36,1.94-0.76,2.97s1.96,1.38,2.99,0.76l0.02-0.02L3.95,10.39
		C3.95,10.39,3.95,10.39,3.95,10.39z"/>
	<linearGradient id="SVGID_10_" gradientUnits="userSpaceOnUse" x1="0.2552" y1="12.0344" x2="11.7987" y2="1.4692">
		<stop  offset="0" style="stop-color:#9E2DDC"/>
		<stop  offset="1" style="stop-color:#0D6AD9"/>
	</linearGradient>
	<path class="st9" d="M2.52,9.71c0.25,0.41,0.78,0.56,1.2,0.31c0.41-0.25,0.56-0.78,0.31-1.2c-0.25-0.41-0.78-0.56-1.2-0.31
		C2.42,8.78,2.28,9.3,2.52,9.71z"/>
	<linearGradient id="SVGID_11_" gradientUnits="userSpaceOnUse" x1="-2.4931" y1="9.0316" x2="9.0504" y2="-1.5336">
		<stop  offset="0" style="stop-color:#9E2DDC"/>
		<stop  offset="1" style="stop-color:#0D6AD9"/>
	</linearGradient>
	<path class="st10" d="M2.17,6.63c0,0,0.02,0.02,0.04,0.02l0.43-0.74c-0.02,0-0.02-0.02-0.04-0.02C1.99,5.52,1.78,4.73,2.15,4.11
		s1.16-0.83,1.78-0.45l0.02,0.02l0.43-0.74L4.36,2.92c-1.03-0.6-2.37-0.27-2.97,0.76C0.79,4.69,1.12,6.03,2.17,6.63z"/>
	<linearGradient id="SVGID_12_" gradientUnits="userSpaceOnUse" x1="-1.9978" y1="9.5728" x2="9.5457" y2="-0.9924">
		<stop  offset="0" style="stop-color:#9E2DDC"/>
		<stop  offset="1" style="stop-color:#0D6AD9"/>
	</linearGradient>
	<path class="st11" d="M4.01,5.21c0.25-0.41,0.1-0.95-0.31-1.2c-0.41-0.25-0.95-0.1-1.2,0.31c-0.25,0.41-0.1,0.95,0.31,1.2
		C3.23,5.75,3.76,5.62,4.01,5.21z"/>
	<linearGradient id="SVGID_13_" gradientUnits="userSpaceOnUse" x1="4.2215" y1="16.3679" x2="15.765" y2="5.8027">
		<stop  offset="0" style="stop-color:#9E2DDC"/>
		<stop  offset="1" style="stop-color:#0D6AD9"/>
	</linearGradient>
	<path class="st12" d="M12,7.38c-0.02,0-0.02-0.02-0.04-0.02L11.53,8.1c0.02,0,0.02,0.02,0.04,0.02c0.62,0.37,0.83,1.16,0.45,1.78
		c-0.37,0.62-1.16,0.83-1.78,0.45c-0.02,0-0.02-0.02-0.02-0.02l-0.43,0.74l0.02,0.02c1.03,0.6,2.37,0.27,2.97-0.76
		C13.38,9.32,13.05,7.98,12,7.38z"/>
	<linearGradient id="SVGID_14_" gradientUnits="userSpaceOnUse" x1="3.7258" y1="15.8263" x2="15.2693" y2="5.2611">
		<stop  offset="0" style="stop-color:#9E2DDC"/>
		<stop  offset="1" style="stop-color:#0D6AD9"/>
	</linearGradient>
	<path class="st13" d="M10.16,8.8c-0.25,0.41-0.1,0.95,0.31,1.2c0.41,0.25,0.95,0.1,1.2-0.31c0.25-0.41,0.1-0.95-0.31-1.2
		C10.95,8.24,10.41,8.39,10.16,8.8z"/>
	<linearGradient id="SVGID_15_" gradientUnits="userSpaceOnUse" x1="0.8642" y1="12.6998" x2="12.4077" y2="2.1346">
		<stop  offset="0" style="stop-color:#9E2DDC"/>
		<stop  offset="1" style="stop-color:#0D6AD9"/>
	</linearGradient>
	<circle class="st14" cx="7.09" cy="7" r="2.66"/>
</g>
</svg>
