<?xml version="1.0" encoding="utf-8"?>
<!-- Generator: Adobe Illustrator 23.0.2, SVG Export Plug-In . SVG Version: 6.00 Build 0)  -->
<svg version="1.1" id="Calque_1" xmlns="http://www.w3.org/2000/svg" xmlns:xlink="http://www.w3.org/1999/xlink" x="0px" y="0px"
	 viewBox="0 0 841.89 283.46" style="enable-background:new 0 0 841.89 283.46;" xml:space="preserve">
<style type="text/css">
	.st0{fill:url(#SVGID_1_);}
	.st1{fill:url(#SVGID_2_);}
	.st2{fill:none;stroke:#FFFFFF;stroke-width:2;stroke-linecap:round;stroke-miterlimit:10;}
	.st3{fill:#312783;}
	.st4{fill:#00FAAF;}
	.st5{fill:#2F3092;}
	.st6{fill:url(#SVGID_3_);}
	.st7{fill:url(#SVGID_4_);}
	.st8{fill:url(#SVGID_5_);}
	.st9{fill:url(#SVGID_6_);}
	.st10{fill:url(#SVGID_7_);}
	.st11{fill:url(#SVGID_8_);}
	.st12{fill:url(#SVGID_9_);}
	.st13{fill:url(#SVGID_10_);}
	.st14{fill:url(#SVGID_11_);}
	.st15{fill:url(#SVGID_12_);}
	.st16{fill:#FFFFFF;}
</style>
<g>
	<g>
		<path class="st16" d="M315.26,180.18c0,36.02-26.53,60.6-59.31,60.6c-12.29,0-24.37-3.45-34.08-9.27v7.33h-29.98V76.22h29.98
			v52.19c9.92-5.39,21.57-8.84,34.08-8.84C288.73,119.57,315.26,143.51,315.26,180.18z M285.71,180.18
			c0-19.19-14.88-33.65-35.15-33.65c-11.43,0-21.35,3.88-28.68,9.92v47.02c7.33,6.26,17.47,10.14,28.68,10.14
			C270.83,213.61,285.71,200.02,285.71,180.18z"/>
		<path class="st16" d="M598.19,121.73v117.11h-29.98v-8.63c-9.71,6.47-21.35,10.35-34.29,10.35c-36.66,0-58.23-29.55-58.23-60.6
			c0-31.27,21.57-60.6,58.23-60.6c12.29,0,24.37,3.88,34.29,9.71v-7.33H598.19z M568.21,156.67c-7.33-6.25-17.69-10.14-28.9-10.14
			c-21.35,0-34.72,15.96-34.72,33.43c0,17.68,13.59,33.65,34.72,33.65c11.43,0,21.57-3.67,28.9-9.92V156.67z"/>
		<path class="st16" d="M655.33,138.12c7.98-11,20.27-18.33,36.88-18.55c2.16,0,4.96,0.43,7.33,1.29v32.57c0,0-8.2-1.72-14.45-1.72
			c-21.57,0-29.76,15.31-29.76,30.62v56.51h-30.19V121.73h30.19V138.12z"/>
		<path class="st16" d="M835.19,76.22v162.62H805v-7.12c-9.49,5.61-21.78,9.06-34.08,9.06c-32.57,0-59.31-24.59-59.31-60.6
			c0-36.66,26.74-60.6,59.31-60.6c12.51,0,24.37,3.45,34.08,8.84V76.22H835.19z M805,203.47v-47.02
			c-7.12-6.04-17.25-9.92-28.69-9.92c-20.06,0-34.94,14.45-34.94,33.65c0,19.84,14.88,33.43,34.94,33.43
			C787.53,213.61,797.88,209.72,805,203.47z"/>
	</g>
	<g>
		<path class="st16" d="M112.22,162.92c0-13.37-11.11-24.37-24.7-24.37s-24.59,11-24.59,24.37c0,13.48,11,24.37,24.59,24.37
			S112.22,176.4,112.22,162.92z"/>
		<path class="st16" d="M168.45,162.92c0,42.92-36.02,77.64-80.88,77.64c-44.64,0-80.88-34.72-80.88-77.64s36.23-77.64,80.88-77.64
			C132.44,85.28,168.45,120,168.45,162.92z M136.96,162.92c0-26.74-22.22-48.74-49.39-48.74s-49.17,22-49.17,48.74
			c0,26.96,22,48.74,49.17,48.74S136.96,189.88,136.96,162.92z"/>
		<path class="st16" d="M52.94,76.22c8.16-9.87,20.64-16.21,34.58-16.21c14.1,0,26.55,6.34,34.66,16.21h22.63
			c-10.5-19.92-32.18-33.54-57.29-33.54c-25.11,0-46.79,13.62-57.29,33.54H52.94z"/>
	</g>
	<g>
		<path class="st16" d="M412.16,180.07c0-8.53-7.09-15.55-15.76-15.55s-15.69,7.02-15.69,15.55c0,8.6,7.02,15.55,15.69,15.55
			S412.16,188.67,412.16,180.07z"/>
		<path class="st16" d="M363.46,111.34c8.16-9.87,20.64-16.21,34.58-16.21c14.1,0,26.55,6.34,34.66,16.21h22.63
			c-10.5-19.92-32.18-33.54-57.29-33.54c-25.11,0-46.79,13.62-57.29,33.54H363.46z"/>
		<path class="st16" d="M396.44,119.57c-35.37,0-64.06,26.96-64.06,60.6c0,33.43,28.69,60.39,64.06,60.39
			c35.37,0,64.05-26.96,64.05-60.39C460.5,146.53,431.81,119.57,396.44,119.57z M396.44,215.52c-20.07,0-36.48-15.96-36.48-35.34
			c0-19.61,16.41-35.57,36.48-35.57c20.29,0,36.48,15.96,36.48,35.57C432.92,199.56,416.73,215.52,396.44,215.52z"/>
	</g>
</g>
</svg>
