<?xml version="1.0"?>
<svg xmlns="http://www.w3.org/2000/svg" viewBox="0 0 64 64" width="512" height="512"><g id="Contact-3" data-name="Contact"><path d="M43,4C33.626,4,26,9.832,26,17c0,5.056,3.9,9.692,9.94,11.812a1,1,0,0,1,.646,1.161l-1.024,4.605,5.888-4.415a1.039,1.039,0,0,1,.64-.2l.319.015c.2.01.392.021.591.021,9.374,0,17-5.832,17-13S52.374,4,43,4ZM54,22H32V20H54Zm0-4H32V16H54Zm0-4H32V12H54Z"/><path d="M9,34h3.687a6.954,6.954,0,0,0,4.949-2.05l1.657-1.657a1,1,0,0,1,1.6.26l.341.683A4.969,4.969,0,0,0,25,33.951V32A8,8,0,0,0,9,32Z"/><path d="M19.746,32.668l-.7.7A8.937,8.937,0,0,1,12.687,36H10v1a7,7,0,0,0,14,0V35.787A6.943,6.943,0,0,1,19.746,32.668ZM17,42a4,4,0,0,1-4-4h2a2,2,0,0,0,4,0h2A4,4,0,0,1,17,42Z"/><polygon points="23 50.586 23 48.852 21.6 48.472 18 51.469 18 54 16 54 16 51.469 12.4 48.472 11 48.852 11 50.586 17 56.586 23 50.586"/><path d="M4,60H30V54.58a5.026,5.026,0,0,0-3.686-4.826L25,49.4V51a1,1,0,0,1-.293.707l-7,7a1,1,0,0,1-1.414,0l-7-7A1,1,0,0,1,9,51V49.4l-1.317.359A5.024,5.024,0,0,0,4,54.58Z"/><path d="M17,46a8.971,8.971,0,0,1-2-.232V47a.989.989,0,0,1-.349.743L17,49.7l2.349-1.956A.989.989,0,0,1,19,47V45.768A8.971,8.971,0,0,1,17,46Z"/></g></svg>
